# xmcd
#
# Track frame offsets:
#	150
#	15233
#	31792
#	47941
#	62926
#	81382
#	97957
#	108992
#	121505
#	133455
#	146561
#	159114
#	178922
#	190540
#	202679
#	214130
#	225197
#	239532
#	251687
#	272701
#
# Disc length: 3812 seconds
#
# Revision: 0
# Processed by: cddbd v1.5.2PL0 Copyright (c) Steve Scherf et al.
# Submitted via: EasyCDDAExtractor 10.2.0.1
#
DISCID=090ee214
DTITLE=Various Artist - Ready Records
DYEAR=1900
DGENRE=Gospel
TTITLE0=Bill Townsend - Lord Make A Way For Me
TTITLE1=Louvin, Ashworth, Watters and Sumner - What A Time We're Gonna Have
TTITLE2=Jim Wilkerson - I Wish One Day
TTITLE3=Evelyn Conner - Songs We Love
TTITLE4=Marvin Morrow - I'll Live On The Mountain
TTITLE5=Marvin Morrow - I Got Saved
TTITLE6=Pat Cole - A New Anointing
TTITLE7=Elizabeth - Sunset Of Your Day
TTITLE8=James Windrow - Shadow Of Your Wings
TTITLE9=James Windrow - Jesus Saves
TTITLE10=Morgan and Morgan - Don't Take For Granted
TTITLE11=The Calhoun Tries - Momma's Waiting
TTITLE12=Anne Murphy - I'm Ready Any Time
TTITLE13=Amber Morgan - Love Everybody
TTITLE14=Ray Cook - God Told Me To Walk A Little Farther
TTITLE15=Lin Butler - Down To My Last Prayer
TTITLE16=Annette Johnson - Mama's Best Friend
TTITLE17=Johnny Selph - Our Flag Still Flies
TTITLE18=Kim Golembeski - Because He Loved Me
TTITLE19=Curtis Andrews - I Dreamed About Mama Last Night
EXTD=
EXTT0=
EXTT1=
EXTT2=
EXTT3=
EXTT4=
EXTT5=
EXTT6=
EXTT7=
EXTT8=
EXTT9=
EXTT10=
EXTT11=
EXTT12=
EXTT13=
EXTT14=
EXTT15=
EXTT16=
EXTT17=
EXTT18=
EXTT19=
PLAYORDER=
